<svg width="33" height="32" viewBox="0 0 33 32" fill="none" xmlns="http://www.w3.org/2000/svg">
<path fill-rule="evenodd" clip-rule="evenodd" d="M30.6665 22.6667C30.6665 24.6917 29.0249 26.3333 26.9998 26.3333L5.6665 26.3333C3.64146 26.3333 1.99983 24.6917 1.99983 22.6667L1.99984 9.33334C1.99984 7.30829 3.64146 5.66667 5.6665 5.66667L26.9998 5.66667C29.0249 5.66667 30.6665 7.30829 30.6665 9.33334L30.6665 22.6667ZM26.9998 24.3333C27.9203 24.3333 28.6665 23.5871 28.6665 22.6667L28.6665 9.33334C28.6665 8.41286 27.9203 7.66667 26.9998 7.66667L5.6665 7.66667C4.74603 7.66667 3.99984 8.41286 3.99984 9.33334L3.99983 22.6667C3.99983 23.5871 4.74603 24.3333 5.6665 24.3333L26.9998 24.3333Z" fill="#121214"/>
<path fill-rule="evenodd" clip-rule="evenodd" d="M10.7335 14C10.7335 13.1163 11.4498 12.4 12.3335 12.4C13.2171 12.4 13.9335 13.1163 13.9335 14C13.9335 14.8807 13.2219 15.5952 12.3423 15.6L12.3332 15.5999L12.3245 15.6C11.445 15.5951 10.7335 14.8806 10.7335 14ZM10.0089 16.1992C9.46627 15.6258 9.13346 14.8518 9.13346 14C9.13346 12.2327 10.5662 10.8 12.3335 10.8C14.1008 10.8 15.5335 12.2327 15.5335 14C15.5335 14.8519 15.2006 15.626 14.6578 16.1994C16.134 17.0181 17.1332 18.5923 17.1332 20.3999C17.1332 20.8418 16.775 21.1999 16.3332 21.1999C15.8914 21.1999 15.5332 20.8418 15.5332 20.3999C15.5332 18.6361 14.1061 17.2056 12.3436 17.2L12.3335 17.2L12.323 17.2C10.5604 17.2054 9.1332 18.636 9.1332 20.3999C9.1332 20.8418 8.77503 21.1999 8.3332 21.1999C7.89138 21.1999 7.5332 20.8418 7.5332 20.3999C7.5332 18.5922 8.53255 17.0178 10.0089 16.1992ZM23.8001 13.3333C23.8001 13.7752 23.442 14.1333 23.0001 14.1333H20.3335C19.8916 14.1333 19.5335 13.7752 19.5335 13.3333C19.5335 12.8915 19.8916 12.5333 20.3335 12.5333H23.0001C23.442 12.5333 23.8001 12.8915 23.8001 13.3333ZM24.3335 18.1333C24.7753 18.1333 25.1335 17.7752 25.1335 17.3333C25.1335 16.8915 24.7753 16.5333 24.3335 16.5333H20.3335C19.8916 16.5333 19.5335 16.8915 19.5335 17.3333C19.5335 17.7752 19.8916 18.1333 20.3335 18.1333H24.3335Z" fill="#F7A600"/>
</svg>
