<svg width="32" height="32" viewBox="0 0 32 32" fill="none" xmlns="http://www.w3.org/2000/svg">
<path d="M5.00005 15.3154C5.31795 13.959 6.52776 13 7.92089 13H24.0791C25.4722 13 26.6821 13.9591 27 15.3154L28.875 23.3154C29.3162 25.1979 27.8876 27 25.9541 27H6.0459C4.11242 27 2.68384 25.1979 3.12505 23.3154L5.00005 15.3154Z" fill="white" stroke="#121214" stroke-width="2"/>
<path fill-rule="evenodd" clip-rule="evenodd" d="M9 18H11H16V20H11V22V24H4V22H9V18Z" fill="#121214"/>
<path d="M15.3792 18.7042L15.3792 18.7041L15.3708 18.6942C14.1168 17.222 12.7511 15.4713 11.7045 13.7639C10.6307 12.0122 10 10.474 10 9.38202C10 5.83406 12.7225 3 16 3C19.2819 3 22 5.78807 22 9.38202C22 10.474 21.3693 12.0122 20.2955 13.7639C19.2544 15.4625 17.8974 17.2038 16.6487 18.6713C16.4043 18.9207 16.1439 19 15.9521 19C15.7569 19 15.5481 18.9078 15.3792 18.7042Z" stroke="#F7A600" stroke-width="2"/>
<path d="M15.3792 18.7042L15.3792 18.7041L15.3708 18.6942C14.1168 17.222 12.7511 15.4713 11.7045 13.7639C10.6307 12.0122 10 10.474 10 9.38202C10 5.83406 12.7225 3 16 3C19.2819 3 22 5.78807 22 9.38202C22 10.474 21.3693 12.0122 20.2955 13.7639C19.2544 15.4625 17.8974 17.2038 16.6487 18.6713C16.4043 18.9207 16.1439 19 15.9521 19C15.7569 19 15.5481 18.9078 15.3792 18.7042Z" fill="#F3F5F7" stroke="#F7A600" stroke-width="2"/>
<circle cx="16" cy="9" r="2" fill="#F5F7FA" stroke="#F7A600" stroke-width="2"/>
</svg>
