<svg width="33" height="32" viewBox="0 0 33 32" fill="none" xmlns="http://www.w3.org/2000/svg">
<path fill-rule="evenodd" clip-rule="evenodd" d="M31 22.6667C31 24.6917 29.3584 26.3333 27.3333 26.3333L6 26.3333C3.97495 26.3333 2.33333 24.6917 2.33333 22.6667L2.33333 9.33334C2.33333 7.30829 3.97495 5.66667 6 5.66667L27.3333 5.66667C29.3584 5.66667 31 7.30829 31 9.33334L31 22.6667ZM27.3333 24.3333C28.2538 24.3333 29 23.5871 29 22.6667L29 9.33334C29 8.41286 28.2538 7.66667 27.3333 7.66667L6 7.66667C5.07952 7.66667 4.33333 8.41286 4.33333 9.33334L4.33333 22.6667C4.33333 23.5871 5.07952 24.3333 6 24.3333L27.3333 24.3333Z" fill="#121214"/>
<path fill-rule="evenodd" clip-rule="evenodd" d="M8.56398 11.4469C8.66211 11.1035 8.97602 10.8667 9.3332 10.8667H15.9999C16.3571 10.8667 16.671 11.1035 16.7691 11.4469L17.4795 13.9333H17.9999C18.4417 13.9333 18.7999 14.2915 18.7999 14.7333C18.7999 15.1751 18.4417 15.5333 17.9999 15.5333H17.9366L18.1024 16.1136C18.1278 16.2022 18.1376 16.2946 18.1314 16.3866L17.8648 20.3866C17.8367 20.8068 17.4877 21.1333 17.0665 21.1333H15.3332C15.0302 21.1333 14.7532 20.9621 14.6177 20.6911L14.1721 19.8H11.161L10.7154 20.6911C10.5799 20.9621 10.3029 21.1333 9.99987 21.1333H8.26654C7.84537 21.1333 7.49632 20.8068 7.46831 20.3866L7.20164 16.3866C7.19551 16.2946 7.20532 16.2022 7.23065 16.1136L7.39643 15.5333H7.3332C6.89138 15.5333 6.5332 15.1751 6.5332 14.7333C6.5332 14.2915 6.89138 13.9333 7.3332 13.9333H7.85358L8.56398 11.4469ZM9.06046 15.5333L8.94616 15.9333H10C10.3682 15.9333 10.6667 16.2318 10.6667 16.6C10.6667 16.9682 10.3682 17.2667 10 17.2667H8.86387L9.01498 19.5333H9.50544L9.95099 18.6422C10.0865 18.3712 10.3635 18.2 10.6665 18.2H14.6665C14.9696 18.2 15.2466 18.3712 15.3821 18.6422L15.8276 19.5333H16.3181L16.4692 17.2667H14.6667C14.2985 17.2667 14 16.9682 14 16.6C14 16.2318 14.2985 15.9333 14.6667 15.9333H16.3869L16.2726 15.5333H9.06046ZM15.8155 13.9333H9.5176L9.93664 12.4667H15.3964L15.8155 13.9333ZM24.6668 15.4667C25.1086 15.4667 25.4668 15.1085 25.4668 14.6667C25.4668 14.2248 25.1086 13.8667 24.6668 13.8667H22.0001C21.5583 13.8667 21.2001 14.2248 21.2001 14.6667C21.2001 15.1085 21.5583 15.4667 22.0001 15.4667H24.6668ZM26.0001 19.4667C26.442 19.4667 26.8001 19.1085 26.8001 18.6667C26.8001 18.2248 26.442 17.8667 26.0001 17.8667H22.0001C21.5583 17.8667 21.2001 18.2248 21.2001 18.6667C21.2001 19.1085 21.5583 19.4667 22.0001 19.4667H26.0001Z" fill="#F7A600"/>
</svg>
