<svg width="32" height="32" viewBox="0 0 32 32" fill="none" xmlns="http://www.w3.org/2000/svg">
<path d="M16 29H4V3.00005H18.1667L24.9983 3.00001C26.6557 3 28 4.3437 28 6L28 26C28 27.657 26.6571 29 25.0004 29H24.9807H24.9609H24.9412H24.9214H24.9016H24.8818H24.862H24.8422H24.8224H24.8025H24.7827H24.7629H24.743H24.7231H24.7033H24.6834H24.6635H24.6436H24.6237H24.6038H24.5838H24.5639H24.544H24.524H24.5041H24.4841H24.4641H24.4442H24.4242H24.4042H24.3842H24.3642H24.3442H24.3241H24.3041H24.2841H24.2641H24.244H24.224H24.2039H24.1839H24.1638H24.1437H24.1236H24.1036H24.0835H24.0634H24.0433H24.0232H24.0031H23.983H23.9628H23.9427H23.9226H23.9025H23.8823H23.8622H23.8421H23.8219H23.8018H23.7816H23.7615H23.7413H23.7211H23.701H23.6808H23.6606H23.6405H23.6203H23.6001H23.5799H23.5597H23.5396H23.5194H23.4992H23.479H23.4588H23.4386H23.4184H23.3982H23.378H23.3578H23.3376H23.3174H23.2972H23.277H23.2568H23.2366H23.2163H23.1961H23.1759H23.1557H23.1355H23.1153H23.0951H23.0749H23.0547H23.0345H23.0143H22.9941H22.9738H22.9536H22.9334H22.9132H22.893H22.8728H22.8526H22.8324H22.8122H22.792H22.7719H22.7517H22.7315H22.7113H22.6911H22.6709H22.6507H22.6306H22.6104H22.5902H22.5701H22.5499H22.5297H22.5096H22.4894H22.4693H22.4491H22.429H22.4088H22.3887H22.3686H22.3484H22.3283H22.3082H22.2881H22.268H22.2479H22.2278H22.2077H22.1876H22.1675H22.1474H22.1273H22.1073H22.0872H22.0671H22.0471H22.027H22.007H21.9869H21.9669H21.9469H21.9269H21.9069H21.8869H21.8669H21.8469H21.8269H21.8069H21.787H21.767H21.747H21.7271H21.7072H21.6872H21.6673H21.6474H21.6275H21.6076H21.5877H21.5678H21.5479H21.5281H21.5082H21.4884H21.4685H21.4487H21.4289H21.4091H21.3893H21.3695H21.3497H21.3299H21.3101H21.2904H21.2706H21.2509H21.2312H21.2115H21.1918H21.1721H21.1524H21.1327H21.1131H21.0934H21.0738H21.0541H21.0345H21.0149H20.9953H20.9758H20.9562H20.9366H20.9171H20.8975H20.878H20.8585H20.839H20.8195H20.8001H20.7806H20.7612H20.7417H20.7223H20.7029H20.6835H20.6641H20.6448H20.6254H20.6061H20.5867H20.5674H20.5481H20.5289H20.5096H20.4903H20.4711H20.4519H20.4326H20.4135H20.3943H20.3751H20.356H20.3368H20.3177H20.2986H20.2795H20.2604H20.2414H20.2223H20.2033H20.1843H20.1653H20.1463H20.1274H20.1084H20.0895H20.0706H20.0517H20.0328H20.0139H19.9951H19.9763H19.9575H19.9387H19.9199H19.9011H19.8824H19.8637H19.845H19.8263H19.8076H19.789H19.7703H19.7517H19.7331H19.7146H19.696H19.6775H19.659H19.6405H19.622H19.6035H19.5851H19.5667H19.5483H19.5299H19.5115H19.4932H19.4749H19.4566H19.4383H19.42H19.4018H19.3836H19.3654H19.3472H19.3291H19.3109H19.2928H19.2747H19.2567H19.2386H19.2206H19.2026H19.1846H19.1666H19.1487H19.1308H19.1129H19.095H19.0772H19.0594H19.0416H19.0238H19.006H18.9883H18.9706H18.9529H18.9352H18.9176H18.9H18.8824H18.8648H18.8473H18.8298H18.8123H18.7948H18.7773H18.7599H18.7425H18.7251H18.7078H18.6905H18.6732H18.6559H18.6387H18.6214H18.6042H18.5871H18.5699H18.5528H18.5357H18.5187H18.5016H18.4846H18.4676H18.4506H18.4337H18.4168H18.3999H18.3831H18.3662H18.3494H18.3327H18.3159H18.2992H18.2825H18.2659H18.2492H18.2326H18.216H18.1995H18.183H18.1665H18.15H18.1336H18.1172H18.1008H18.0844H18.0681H18.0518H18.0356H18.0193H18.0031H17.9869H17.9708H17.9547H17.9386H17.9225H17.9065H17.8905H17.8745H17.8586H17.8427H17.8268H17.811H17.7952H17.7794H17.7637H17.7479H17.7322H17.7166H17.701H17.6854H17.6698H17.6543H17.6388H17.6233H17.6079H17.5925H17.5771H17.5618H17.5465H17.5312H17.516H17.5008H17.4856H17.4705H17.4553H17.4403H17.4252H17.4102H17.3953H17.3803H17.3654H17.3505H17.3357H17.3209H17.3061H17.2914H17.2767H17.2621H17.2474H17.2328H17.2183H17.2037H17.1893H17.1748H17.1604H17.146H17.1317H17.1173H17.1031H17.0888H17.0746H17.0605H17.0463H17.0322H17.0182H17.0042H16.9902H16.9762H16.9623H16.9484H16.9346H16.9208H16.907H16.8933H16.8796H16.866H16.8524H16.8388H16.8253H16.8118H16.7983H16.7849H16.7715H16.7582H16.7449H16.7316H16.7184H16.7052H16.692H16.6789H16.6658H16.6528H16.6398H16.6269H16.614H16.6011H16.5883H16.5755H16.5627H16.55H16.5373H16.5247H16.5121H16.4996H16.487H16.4746H16.4621H16.4498H16.4374H16.4251H16.4129H16.4006H16.3885H16.3763H16.3642H16.3522H16.3402H16.3282H16.3163H16.3044H16.2925H16.2808H16.269H16.2573H16.2456H16.234H16.2224H16.2109H16.1994H16.1879H16.1765H16.1651H16.1538H16.1425H16.1313H16.1201H16.109H16.0979H16.0868H16.0758H16.0649H16.0539H16.0431H16.0322H16.0214H16.0107H16Z" fill="white" stroke="#121214" stroke-width="2"/>
<path d="M9 23C9 22.4477 9.44772 22 10 22H22C22.5523 22 23 22.4477 23 23C23 23.5523 22.5523 24 22 24H10C9.44772 24 9 23.5523 9 23Z" fill="#121214"/>
<path d="M18.1757 19.5077L16.6833 18.9047C18.7062 13.9123 16.8436 7.58786 16.8245 7.52679L18.3665 7.06496C18.4505 7.33977 20.4085 13.9963 18.1757 19.5077ZM13.8245 19.5077C11.5917 13.9963 13.5497 7.33977 13.6337 7.06114L15.1757 7.52297C15.1566 7.58786 13.3016 13.9237 15.3169 18.9008L13.8245 19.5077Z" fill="#F7A600"/>
<path d="M20.8551 16.5077C15.9314 14.5153 11.1604 16.4809 11.1146 16.5038L10.4849 15.0229C10.7024 14.9313 15.9009 12.7672 21.462 15.0191L20.8551 16.5077ZM16.1643 12.5878C13.0078 12.5878 10.691 11.6222 10.5497 11.5611L11.1795 10.0802L10.8627 10.8206L11.1757 10.0802C11.2215 10.0993 15.9925 12.0687 20.9162 10.0764L21.5192 11.5687C19.6337 12.3321 17.7864 12.5878 16.1643 12.5878Z" fill="#F7A600"/>
<path d="M16 20C12.1412 20 9 16.8588 9 13C9 9.14122 12.1412 6 16 6C19.8588 6 23 9.14122 23 13C23 16.8588 19.8588 20 16 20ZM16 7.6145C13.0267 7.6145 10.6107 10.0305 10.6107 13.0038C10.6107 15.9771 13.0267 18.3931 16 18.3931C18.9733 18.3931 21.3893 15.9771 21.3893 13.0038C21.3893 10.0305 18.9733 7.6145 16 7.6145Z" fill="#F7A600"/>
</svg>
